<?xml version="1.0" standalone="no"?>
<!DOCTYPE svg PUBLIC "-//W3C//DTD SVG 20010904//EN"
 "http://www.w3.org/TR/2001/REC-SVG-20010904/DTD/svg10.dtd">
<svg version="1.0" xmlns="http://www.w3.org/2000/svg"
 width="300.000000pt" height="300.000000pt" viewBox="0 0 300.000000 300.000000"
 preserveAspectRatio="xMidYMid meet">
<metadata>
Created by potrace 1.10, written by Peter Selinger 2001-2011
</metadata>
<g transform="translate(0.000000,300.000000) scale(0.100000,-0.100000)"
fill="#000000" stroke="none">
<path d="M1770 2054 c-30 -13 -95 -38 -144 -56 l-90 -32 47 -19 c26 -11 47
-22 47 -26 -1 -19 -360 -382 -497 -503 l-41 -37 15 -58 c8 -32 18 -62 22 -66
10 -10 287 274 451 461 113 130 126 142 138 125 7 -10 15 -28 19 -40 6 -27 23
-31 23 -6 0 9 16 74 36 145 19 72 34 131 32 132 -2 2 -28 -7 -58 -20z m-5 -76
c-16 -83 -26 -100 -52 -95 -27 5 -61 -25 -163 -143 -109 -125 -147 -167 -260
-282 -63 -65 -122 -118 -132 -118 -35 0 -17 37 44 91 97 84 398 389 426 433
16 22 26 53 27 73 0 32 4 37 45 53 67 27 73 25 65 -12z"/>
<path d="M1365 1879 c-66 -10 -170 -39 -234 -67 l-42 -17 -2 -178 c-1 -97 0
-177 2 -177 2 0 20 14 40 32 l36 32 5 120 5 120 74 23 c41 13 107 26 147 30
69 6 75 8 115 49 l43 44 -64 -1 c-36 -1 -92 -5 -125 -10z"/>
<path d="M1806 1832 c-2 -4 -7 -23 -11 -43 -6 -31 -4 -37 14 -42 20 -5 21 -11
21 -174 0 -114 -5 -185 -15 -222 -14 -54 -35 -90 -35 -60 0 8 -13 28 -30 44
-28 27 -29 30 -13 47 24 27 28 106 6 148 -28 54 -75 80 -143 80 l-58 0 -76
-77 -77 -78 3 -191 3 -192 -25 18 c-40 29 -96 91 -128 142 l-29 47 -32 -33
-32 -33 44 -59 c24 -33 68 -81 98 -106 53 -46 164 -118 181 -118 4 0 8 135 8
300 l0 300 71 0 c82 0 102 -8 119 -50 11 -28 11 -34 -7 -58 -17 -23 -28 -27
-82 -30 l-61 -3 0 -44 0 -45 69 0 c59 0 74 -4 98 -24 22 -19 28 -32 28 -66 0
-37 -6 -47 -47 -86 -26 -24 -50 -44 -55 -44 -4 0 -7 36 -5 80 l4 80 -46 0 -46
0 0 -155 c0 -85 3 -155 7 -155 4 0 39 19 77 42 90 53 202 166 243 243 56 108
63 147 63 375 l0 206 -50 21 c-27 12 -52 18 -54 15z m-106 -457 c0 -32 24 -69
62 -96 23 -17 32 -19 44 -9 26 22 29 0 5 -43 -22 -40 -65 -97 -74 -97 -2 0 0
18 6 39 17 61 -4 115 -56 148 -23 15 -44 28 -46 30 -5 4 41 51 52 52 4 1 7
-10 7 -24z m-260 -330 c0 -51 -13 -58 -51 -24 -18 15 -21 22 -10 26 7 3 21 14
30 23 25 28 31 24 31 -25z m185 5 c6 0 15 3 21 8 5 4 -5 -8 -23 -25 -45 -45
-63 -43 -63 5 0 49 7 56 33 31 11 -10 26 -19 32 -19z"/>
</g>
</svg>
